<svg width="48" height="48" viewBox="0 0 48 48" fill="none" xmlns="http://www.w3.org/2000/svg">
<path d="M17.9999 8V10.76C16.3399 10.1 14.5599 9.76 12.7799 9.76C9.19988 9.76 5.61988 11.12 2.87988 13.86L9.53988 20.52H11.7599V22.74C13.4799 24.46 15.7199 25.36 17.9799 25.46V30H11.9999V36C11.9999 38.2 13.7999 40 15.9999 40H35.9999C39.3199 40 41.9999 37.32 41.9999 34V8H17.9999ZM15.7799 20.82V16.52H11.2199L9.13988 14.44C10.3012 13.9918 11.5351 13.7613 12.7799 13.76C15.4599 13.76 17.9599 14.8 19.8599 16.68L22.6799 19.5L22.2799 19.9C21.7774 20.4073 21.1793 20.81 20.5201 21.0846C19.861 21.3593 19.1539 21.5004 18.4399 21.5C17.4999 21.5 16.5799 21.26 15.7799 20.82ZM37.9999 34C37.9999 35.1 37.0999 36 35.9999 36C34.8999 36 33.9999 35.1 33.9999 34V30H21.9999V24.82C23.1399 24.36 24.1999 23.68 25.1199 22.76L25.5199 22.36L31.1799 28H33.9999V25.18L21.9999 13.24V12H37.9999V34Z" fill="#007AAE"/>
</svg>
