<svg width="48" height="48" viewBox="0 0 48 48" fill="none" xmlns="http://www.w3.org/2000/svg">
<path d="M24 21.3067C27.5052 21.3067 30.3467 18.501 30.3467 15.04C30.3467 11.579 27.5052 8.77333 24 8.77333C20.4948 8.77333 17.6533 11.579 17.6533 15.04C17.6533 18.501 20.4948 21.3067 24 21.3067Z" fill="#FFE600"/>
<path d="M14.3734 15.6667H15.0134V15.0933C15.0173 13.4261 15.4877 11.7933 16.3713 10.3795C17.2549 8.96571 18.5165 7.8274 20.0134 7.09334C19.5703 6.07275 18.859 5.19125 17.9551 4.54245C17.0512 3.89366 15.9884 3.50179 14.8797 3.40848C13.771 3.31517 12.6577 3.5239 11.6581 4.0125C10.6584 4.50109 9.80981 5.25132 9.20232 6.18348C8.59483 7.11564 8.25115 8.19494 8.20779 9.30674C8.16443 10.4185 8.42301 11.5213 8.95607 12.498C9.48912 13.4746 10.2767 14.2886 11.2353 14.8536C12.1938 15.4186 13.2875 15.7134 14.4001 15.7067L14.3734 15.6667ZM33.0134 15.04V15.6133H33.6534C34.7512 15.6023 35.8258 15.2956 36.7639 14.7253C37.7021 14.1551 38.4692 13.3425 38.9845 12.3731C39.4997 11.4036 39.7441 10.3132 39.6919 9.21661C39.6397 8.11999 39.2928 7.05772 38.6878 6.14162C38.0828 5.22552 37.242 4.48946 36.2539 4.01093C35.2658 3.5324 34.167 3.3291 33.0731 3.42241C31.9792 3.51572 30.9307 3.90221 30.038 4.54119C29.1452 5.18016 28.4412 6.04799 28.0001 7.05334C29.4975 7.78453 30.7605 8.91996 31.6464 10.3313C32.5323 11.7427 33.0058 13.3737 33.0134 15.04ZM29.7201 21.9333C32.3711 22.4581 34.9344 23.3559 37.3334 24.6C37.6714 24.7857 37.9775 25.0242 38.2401 25.3067H45.3334V20.7467C45.3347 20.5718 45.2882 20.3998 45.1989 20.2495C45.1096 20.0991 44.9809 19.9759 44.8268 19.8933C41.371 18.0858 37.5267 17.1476 33.6268 17.16H32.7468C32.2847 19.0383 31.2219 20.7143 29.7201 21.9333ZM8.70677 27.8933C8.70434 27.2218 8.88569 26.5625 9.23118 25.9866C9.57666 25.4108 10.0731 24.9405 10.6668 24.6267C13.0658 23.3825 15.6291 22.4847 18.2801 21.96C16.7855 20.7514 15.7235 19.0904 15.2534 17.2267H14.3734C10.4735 17.2143 6.62924 18.1524 3.17344 19.96C3.01927 20.0426 2.89058 20.1657 2.80129 20.3161C2.71199 20.4665 2.66548 20.6384 2.66677 20.8133V29.3333H8.70677V27.8933ZM28.6134 35.5867H36.5601V37.4533H28.6134V35.5867Z" fill="#FFE600"/>
<path d="M43.7467 28.3467H34.5867V27.0133C34.5867 26.6597 34.4462 26.3206 34.1961 26.0705C33.9461 25.8205 33.6069 25.68 33.2533 25.68C32.8997 25.68 32.5606 25.8205 32.3105 26.0705C32.0605 26.3206 31.92 26.6597 31.92 27.0133V28.3467H29.3333V24.5733C27.5791 24.205 25.7924 24.0129 24 24C19.7917 23.9825 15.6435 24.9989 11.92 26.96C11.7541 27.046 11.6153 27.1763 11.5188 27.3363C11.4224 27.4963 11.372 27.6798 11.3733 27.8667V35.3467H20.8533V43.4667C20.8533 43.8203 20.9938 44.1594 21.2438 44.4095C21.4939 44.6595 21.833 44.8 22.1867 44.8H43.7467C44.1003 44.8 44.4394 44.6595 44.6895 44.4095C44.9395 44.1594 45.08 43.8203 45.08 43.4667V29.68C45.08 29.3264 44.9395 28.9872 44.6895 28.7372C44.4394 28.4871 44.1003 28.3467 43.7467 28.3467ZM42.4133 42.16H23.52V31.0133H31.92V32.2267C31.92 32.5803 32.0605 32.9194 32.3105 33.1695C32.5606 33.4195 32.8997 33.56 33.2533 33.56C33.6069 33.56 33.9461 33.4195 34.1961 33.1695C34.4462 32.9194 34.5867 32.5803 34.5867 32.2267V31.0133H42.4133V42.16Z" fill="#FFE600"/>
</svg>
