<svg width="24" height="24" viewBox="0 0 24 24" fill="none" xmlns="http://www.w3.org/2000/svg">
<path d="M17.5 12C18.9587 12 20.3576 12.5795 21.3891 13.6109C22.4205 14.6424 23 16.0413 23 17.5C23 18.9587 22.4205 20.3576 21.3891 21.3891C20.3576 22.4205 18.9587 23 17.5 23C16.0413 23 14.6424 22.4205 13.6109 21.3891C12.5795 20.3576 12 18.9587 12 17.5C12 16.0413 12.5795 14.6424 13.6109 13.6109C14.6424 12.5795 16.0413 12 17.5 12ZM17.5 14L17.41 14.007C17.3101 14.0253 17.2181 14.0735 17.1463 14.1453C17.0745 14.2171 17.0263 14.3091 17.008 14.409L17 14.5V17H14.498L14.408 17.008C14.3081 17.0263 14.2161 17.0745 14.1443 17.1463C14.0725 17.2181 14.0243 17.3101 14.006 17.41L13.998 17.5L14.006 17.59C14.0243 17.6899 14.0725 17.7819 14.1443 17.8537C14.2161 17.9255 14.3081 17.9737 14.408 17.992L14.498 18H17V20.503L17.008 20.593C17.0263 20.6929 17.0745 20.7849 17.1463 20.8567C17.2181 20.9285 17.3101 20.9767 17.41 20.995L17.5 21.003L17.59 20.995C17.6899 20.9767 17.7819 20.9285 17.8537 20.8567C17.9255 20.7849 17.9737 20.6929 17.992 20.593L18 20.503V18L20.504 18.001L20.594 17.993C20.6939 17.9747 20.7859 17.9265 20.8577 17.8547C20.9295 17.7829 20.9777 17.6909 20.996 17.591L21.004 17.501L20.996 17.411C20.9777 17.311 20.9293 17.2189 20.8573 17.1471C20.7853 17.0752 20.6931 17.0271 20.593 17.009L20.503 17.001H18V14.501L17.992 14.411C17.9739 14.3109 17.9258 14.2187 17.8539 14.1467C17.7821 14.0747 17.69 14.0263 17.59 14.008L17.5 14ZM12.022 14C11.3528 15.0446 10.9981 16.2595 11 17.5C11 18.384 11.176 19.226 11.496 19.995C8.942 19.857 7.5 18.773 7.5 16.75V15.75C7.5 14.784 8.284 14 9.25 14H12.022ZM8.126 9C7.95152 9.67899 7.95823 10.3919 8.14546 11.0675C8.3327 11.743 8.6939 12.3577 9.193 12.85L9.355 13.001L9.25 13C8.64983 12.9998 8.06606 13.1959 7.58778 13.5585C7.10949 13.921 6.76294 14.4301 6.601 15.008L6.567 15.009C3.657 15.009 2 13.919 2 11.75V10.75C2.00002 10.3108 2.16517 9.88768 2.46268 9.56461C2.76019 9.24154 3.1683 9.04214 3.606 9.006L3.75 9H8.126ZM12 7C12.7956 7 13.5587 7.31607 14.1213 7.87868C14.6839 8.44129 15 9.20435 15 10C15 10.7956 14.6839 11.5587 14.1213 12.1213C13.5587 12.6839 12.7956 13 12 13C11.2044 13 10.4413 12.6839 9.87868 12.1213C9.31607 11.5587 9 10.7956 9 10C9 9.20435 9.31607 8.44129 9.87868 7.87868C10.4413 7.31607 11.2044 7 12 7ZM20.25 9C21.216 9 22 9.784 22 10.75L21.999 11.712C22.019 12.081 21.989 12.419 21.912 12.726C20.7121 11.6142 19.1359 10.9975 17.5 11C16.9287 10.9994 16.3598 11.0741 15.808 11.222C16.0392 10.5024 16.0621 9.73206 15.874 9H20.25ZM6.5 2C7.29565 2 8.05871 2.31607 8.62132 2.87868C9.18393 3.44129 9.5 4.20435 9.5 5C9.5 5.79565 9.18393 6.55871 8.62132 7.12132C8.05871 7.68393 7.29565 8 6.5 8C5.70435 8 4.94129 7.68393 4.37868 7.12132C3.81607 6.55871 3.5 5.79565 3.5 5C3.5 4.20435 3.81607 3.44129 4.37868 2.87868C4.94129 2.31607 5.70435 2 6.5 2ZM17.5 2C18.2956 2 19.0587 2.31607 19.6213 2.87868C20.1839 3.44129 20.5 4.20435 20.5 5C20.5 5.79565 20.1839 6.55871 19.6213 7.12132C19.0587 7.68393 18.2956 8 17.5 8C16.7044 8 15.9413 7.68393 15.3787 7.12132C14.8161 6.55871 14.5 5.79565 14.5 5C14.5 4.20435 14.8161 3.44129 15.3787 2.87868C15.9413 2.31607 16.7044 2 17.5 2Z" fill="#F8FAFC"/>
</svg>
