<svg width="24" height="22" viewBox="0 0 24 22" fill="none" xmlns="http://www.w3.org/2000/svg">
<g clip-path="url(#clip0_8_103)">
<path d="M7.80001 15.125C7.71038 15.125 7.62076 15.14 7.53526 15.1718C7.04926 15.3527 6.53813 15.4688 6.00001 15.4688C5.46188 15.4688 4.95076 15.3527 4.46438 15.1718C4.37888 15.14 4.28963 15.125 4.20001 15.125C1.87275 15.125 -0.0123755 17.2941 -4.5462e-07 19.9641C0.00524955 21.0925 0.814876 22 1.8 22H10.2C11.1851 22 11.9948 21.0925 12 19.9641C12.0124 17.2941 10.1273 15.125 7.80001 15.125ZM6.00001 13.75C7.98826 13.75 9.60001 11.9032 9.60001 9.625C9.60001 7.3468 7.98826 5.5 6.00001 5.5C4.01175 5.5 2.4 7.3468 2.4 9.625C2.4 11.9032 4.01175 13.75 6.00001 13.75ZM22.2 0H7.80001C6.80738 0 6.00001 0.956055 6.00001 2.13082V4.125C6.87826 4.125 7.69126 4.41633 8.40001 4.88984V2.75H21.6V15.125H19.2V12.375H14.4V15.125H11.541C12.2573 15.8421 12.783 16.7892 13.0294 17.875H22.2C23.1927 17.875 24 16.9189 24 15.7442V2.13082C24 0.956055 23.1927 0 22.2 0Z" fill="#F8FAFC"/>
</g>
<defs>
<clipPath id="clip0_8_103">
<rect width="24" height="22" fill="white"/>
</clipPath>
</defs>
</svg>
