<svg width="48" height="48" viewBox="0 0 48 48" fill="none" xmlns="http://www.w3.org/2000/svg">
<path d="M18.102 25.429C17.412 25.742 16.726 27.787 16.252 28.501M44.408 15.204C44.093 15.692 43.71 15.677 43.545 16.252C43.387 19.483 41.505 18.978 40.452 21.452C40.325 21.708 40.253 21.87 40.082 21.966C39.769 23.726 37.419 24.271 35.992 23.096C35.442 22.867 34.868 21.616 34.544 21.37C33.67 20.634 35.574 20.32 35.962 19.716C36.642 18.446 35.888 18.09 37.904 17.691C39.094 15.006 39.747 16.736 40.73 15.133C41.25 14.716 41.356 13.936 41.603 13.242C42.419 12.197 43.828 12.866 44.049 13.817C44.025 14.152 44.75 14.787 44.409 15.205L44.408 15.204Z" stroke="#007C0C" stroke-linecap="round" stroke-linejoin="round"/>
<path d="M19.983 24.576C19.32 24.768 18.594 24.942 18.092 25.439M35.129 22.13H35.119M39.846 22.408V22.398M39.846 22.418C39.843 22.418 39.848 22.403 39.856 22.408" stroke="#007C0C" stroke-linecap="round" stroke-linejoin="round"/>
<path d="M39.856 22.398C39.842 22.398 39.867 22.425 39.846 22.448M37.79 28.912C39.751 26.146 41.159 26.634 39.815 22.511" stroke="#007C0C" stroke-linecap="round" stroke-linejoin="round"/>
<path d="M39.8461 22.46C39.7861 22.502 39.8281 22.593 39.8461 22.449M37.8011 28.912H37.7911M37.7711 28.922L37.8111 28.892C36.9491 29.903 36.7091 31.113 37.6471 32.293M38.7871 35.222C38.6311 34.284 37.9121 33.254 37.6571 32.293" stroke="#007C0C" stroke-linecap="round" stroke-linejoin="round"/>
<path d="M24.042 34.616C25.972 32.923 28.398 33.449 30.732 33.178C31.401 32.13 32.805 31.853 33.824 32.16C34.893 32.439 39.278 38.718 38.787 35.212M23.918 35.191C23.82 34.921 24 34.769 24.041 34.605M16.263 28.501C15.385 29.554 14.735 29.616 16.088 30.567C16.927 32.142 17.236 33.097 19.428 32.95C20.029 33.276 20.068 33.962 20.507 34.564C21.223 35.267 24.313 37.418 23.928 35.222M31.019 24.33C29.327 27.29 22.742 24.722 18.934 25.696M31.975 23.518C31.588 23.694 31.505 24.055 31.009 24.329M35.222 22.305C34.336 22.992 32.865 22.914 31.954 23.518M35.222 19.808C35.318 19.962 35.457 19.985 35.448 20.085M35.222 19.798C33.998 19.755 34.083 18.087 33.269 17.126C32.479 16.356 31.724 15.416 30.413 15.06C28.078 13.782 21.17 13.876 18.512 13.223" stroke="#007C0C" stroke-linecap="round" stroke-linejoin="round"/>
<path d="M18.9341 25.696C20.0771 25.258 20.7461 22.786 20.1371 21.781C19.8341 21.509 18.9711 21.091 18.7601 20.527C18.3311 15.865 22.1701 13.179 15.6561 12.574M15.8201 30.31C13.7451 31.189 8.8971 28.652 7.0351 27.34M7.0351 27.33C6.8451 27.04 5.8391 26.75 5.3811 26.313" stroke="#007C0C" stroke-linecap="round" stroke-linejoin="round"/>
<path d="M5.38009 26.302C5.40509 26.409 5.26309 26.266 5.35009 26.282M5.36009 26.282C4.92709 26.045 4.73309 25.042 4.43509 24.412M4.43509 24.401C4.03209 23.847 4.11509 22.371 3.71509 21.761" stroke="#007C0C" stroke-linecap="round" stroke-linejoin="round"/>
<path d="M3.726 21.78C3.663 21.59 3.524 21.457 3.5 21.267M3.5 21.257C3.587 20.005 3.345 17.338 4.003 16.191M4.004 16.201C4.184 15.736 4.44 15.585 4.723 15.266M4.723 15.256C5.799 14.42 5.039 13.089 5.339 11.762C6.35 9.15699 12.791 12.625 15.656 12.584M12.666 36.445C12.406 35.833 11.088 35.461 10.714 35.14C9.524 34.584 10.894 31.532 9.789 31.07C8.664 30.36 7.209 29.885 6.161 30.906C2.936 36.212 7.508 33.364 3.747 36.681C4.899 37.703 6.964 36.045 7.98 35.581C8.929 35.157 9.314 36.024 10.303 36.218C10.773 36.472 13.44 38.169 12.666 36.445Z" stroke="#007C0C" stroke-linecap="round" stroke-linejoin="round"/>
</svg>
